<?xml version="1.0" encoding="UTF-8" standalone="no"?>
<!-- Created with Inkscape (http://www.inkscape.org/) -->

<svg
   width="40mm"
   height="40mm"
   viewBox="0 0 40 40"
   version="1.1"
   id="svg5"
   inkscape:version="1.2 (dc2aedaf03, 2022-05-15)"
   sodipodi:docname="profile.svg"
   xmlns:inkscape="http://www.inkscape.org/namespaces/inkscape"
   xmlns:sodipodi="http://sodipodi.sourceforge.net/DTD/sodipodi-0.dtd"
   xmlns="http://www.w3.org/2000/svg"
   xmlns:svg="http://www.w3.org/2000/svg">
  <sodipodi:namedview
     id="namedview7"
     pagecolor="#ffffff"
     bordercolor="#000000"
     borderopacity="0.25"
     inkscape:showpageshadow="2"
     inkscape:pageopacity="0.0"
     inkscape:pagecheckerboard="0"
     inkscape:deskcolor="#d1d1d1"
     inkscape:document-units="mm"
     showgrid="false"
     inkscape:zoom="1.3228492"
     inkscape:cx="65.767135"
     inkscape:cy="89.957345"
     inkscape:window-width="1366"
     inkscape:window-height="705"
     inkscape:window-x="-8"
     inkscape:window-y="-8"
     inkscape:window-maximized="1"
     inkscape:current-layer="layer1" />
  <defs
     id="defs2" />
  <g
     inkscape:label="Camada 1"
     inkscape:groupmode="layer"
     id="layer1">
    <path
       id="path2969"
       style="fill:#000000;stroke-width:0.283104"
       d="M 20,2.5 A 12.499988,12.5 0 0 0 7.5,15.000013 12.499988,12.5 0 0 0 20,27.500025 12.499988,12.5 0 0 0 32.5,15.000013 12.499988,12.5 0 0 0 20,2.5 Z m -0.06873,2.7574544 c 1.782258,0 3.137504,0.427193 4.065381,1.2815764 0.937063,0.845195 1.405597,1.869712 1.405597,3.0731974 0,0.8727558 -0.239033,1.6810358 -0.716751,2.4251748 -0.477719,0.734952 -1.401007,1.552764 -2.769854,2.45308 -0.918689,0.606336 -1.525028,1.148022 -1.819009,1.625741 -0.284793,0.468532 -0.459173,1.18988 -0.523482,2.163692 h -0.56534 c -0.01837,-1.019746 0.02773,-1.782436 0.137976,-2.287716 0.11943,-0.505279 0.417834,-1.19855 0.895552,-2.080493 0.486906,-0.89113 0.803856,-1.603463 0.950846,-2.136304 0.156177,-0.542027 0.23461,-1.207737 0.23461,-1.9978098 0,-1.2218594 -0.239032,-2.1223534 -0.716751,-2.7011284 -0.477719,-0.578775 -1.042716,-0.8681644 -1.694985,-0.8681644 -0.496093,0 -0.91427,0.133039 -1.254186,0.3994594 -0.257233,0.202112 -0.385506,0.413584 -0.385506,0.63407 0,0.146991 0.08693,0.376492 0.261483,0.688847 0.395037,0.707392 0.592727,1.3094824 0.592727,1.8055744 0,0.4501588 -0.156349,0.8264788 -0.468704,1.1296468 -0.303168,0.303168 -0.684254,0.454753 -1.143598,0.454753 -0.514467,0 -0.946425,-0.179146 -1.295527,-0.537435 -0.349103,-0.367476 -0.523483,-0.8497908 -0.523483,-1.4469398 0,-1.0840554 0.468535,-2.0349054 1.405598,-2.8525394 0.937064,-0.8176354 2.246204,-1.2262824 3.927406,-1.2262824 z M 19.421225,20.291679 c 0.615521,0 1.139178,0.216238 1.570962,0.648023 0.431784,0.431784 0.648022,0.955441 0.648022,1.570963 0,0.615523 -0.216238,1.143428 -0.648022,1.5844 -0.431784,0.431784 -0.955441,0.648022 -1.570962,0.648022 -0.615522,0 -1.139178,-0.216238 -1.570962,-0.648022 -0.431784,-0.440972 -0.647505,-0.968877 -0.647505,-1.5844 0,-0.615522 0.215721,-1.139179 0.647505,-1.570963 0.431784,-0.431785 0.95544,-0.648023 1.570962,-0.648023 z" />
    <path
       id="path5307"
       style="fill:#000000;stroke-width:0.210531"
       d="M 19.999813 30.000236 A 20 20 0 0 0 2.679423 40.000142 L 37.318652 40.000142 A 20 20 0 0 0 19.999813 30.000236 z " />
  </g>
</svg>
